<svg width="200" height="40" viewBox="0 0 200 40" fill="none" xmlns="http://www.w3.org/2000/svg">
<path d="M34.1422 5.85781C30.3647 2.08031 25.3422 0 20 0C14.6578 0 9.63531 2.08031 5.85781 5.85781C2.08031 9.63531 0 14.6578 0 20C0 25.3422 2.08039 30.3646 5.85781 34.1422C9.63524 37.9198 14.6578 40 20 40C25.3422 40 30.3647 37.9197 34.1422 34.1422C37.9197 30.3647 40 25.3422 40 20C40 14.6578 37.9196 9.63539 34.1422 5.85781Z" fill="#33CC95"/>
<g clip-path="url(#clip0_35212_419)">
<path d="M20.5714 8V33.1429" stroke="white" stroke-width="2" stroke-linecap="round" stroke-linejoin="round"/>
<path d="M26.2857 12.5714H17.7143C16.6534 12.5714 15.636 12.9929 14.8859 13.743C14.1357 14.4931 13.7143 15.5106 13.7143 16.5714C13.7143 17.6323 14.1357 18.6497 14.8859 19.3999C15.636 20.15 16.6534 20.5714 17.7143 20.5714H23.4286C24.4894 20.5714 25.5069 20.9929 26.257 21.743C27.0072 22.4932 27.4286 23.5106 27.4286 24.5714C27.4286 25.6323 27.0072 26.6497 26.257 27.3999C25.5069 28.15 24.4894 28.5714 23.4286 28.5714H13.7143" stroke="white" stroke-width="2" stroke-linecap="round" stroke-linejoin="round"/>
</g>
<path d="M57.8926 18.464H55.5646V29H52.1566V18.464H50.6446V15.704H52.1566V15.032C52.1566 13.4 52.6206 12.2 53.5486 11.432C54.4766 10.664 55.8766 10.304 57.7486 10.352V13.184C56.9326 13.168 56.3646 13.304 56.0446 13.592C55.7246 13.88 55.5646 14.4 55.5646 15.152V15.704H57.8926V18.464ZM61.7741 14.12C61.1821 14.12 60.6861 13.936 60.2861 13.568C59.9021 13.184 59.7101 12.712 59.7101 12.152C59.7101 11.592 59.9021 11.128 60.2861 10.76C60.6861 10.376 61.1821 10.184 61.7741 10.184C62.3661 10.184 62.8541 10.376 63.2381 10.76C63.6381 11.128 63.8381 11.592 63.8381 12.152C63.8381 12.712 63.6381 13.184 63.2381 13.568C62.8541 13.936 62.3661 14.12 61.7741 14.12ZM63.4301 15.704V29H60.0701V15.704H63.4301ZM74.1178 15.512C75.7018 15.512 76.9818 16.016 77.9578 17.024C78.9338 18.016 79.4218 19.408 79.4218 21.2V29H76.0618V21.656C76.0618 20.6 75.7978 19.792 75.2698 19.232C74.7418 18.656 74.0218 18.368 73.1098 18.368C72.1818 18.368 71.4458 18.656 70.9018 19.232C70.3738 19.792 70.1098 20.6 70.1098 21.656V29H66.7498V15.704H70.1098V17.36C70.5578 16.784 71.1258 16.336 71.8138 16.016C72.5178 15.68 73.2858 15.512 74.1178 15.512ZM81.7529 22.304C81.7529 20.96 82.0169 19.768 82.5449 18.728C83.0889 17.688 83.8169 16.888 84.7289 16.328C85.6569 15.768 86.6889 15.488 87.8249 15.488C88.8169 15.488 89.6809 15.688 90.4169 16.088C91.1689 16.488 91.7689 16.992 92.2169 17.6V15.704H95.6009V29H92.2169V27.056C91.7849 27.68 91.1849 28.2 90.4169 28.616C89.6649 29.016 88.7929 29.216 87.8009 29.216C86.6809 29.216 85.6569 28.928 84.7289 28.352C83.8169 27.776 83.0889 26.968 82.5449 25.928C82.0169 24.872 81.7529 23.664 81.7529 22.304ZM92.2169 22.352C92.2169 21.536 92.0569 20.84 91.7369 20.264C91.4169 19.672 90.9849 19.224 90.4409 18.92C89.8969 18.6 89.3129 18.44 88.6889 18.44C88.0649 18.44 87.4889 18.592 86.9609 18.896C86.4329 19.2 86.0009 19.648 85.6649 20.24C85.3449 20.816 85.1849 21.504 85.1849 22.304C85.1849 23.104 85.3449 23.808 85.6649 24.416C86.0009 25.008 86.4329 25.464 86.9609 25.784C87.5049 26.104 88.0809 26.264 88.6889 26.264C89.3129 26.264 89.8969 26.112 90.4409 25.808C90.9849 25.488 91.4169 25.04 91.7369 24.464C92.0569 23.872 92.2169 23.168 92.2169 22.352ZM106.251 15.512C107.835 15.512 109.115 16.016 110.091 17.024C111.067 18.016 111.555 19.408 111.555 21.2V29H108.195V21.656C108.195 20.6 107.931 19.792 107.403 19.232C106.875 18.656 106.155 18.368 105.243 18.368C104.315 18.368 103.579 18.656 103.035 19.232C102.507 19.792 102.243 20.6 102.243 21.656V29H98.8826V15.704H102.243V17.36C102.691 16.784 103.259 16.336 103.947 16.016C104.651 15.68 105.419 15.512 106.251 15.512ZM113.886 22.352C113.886 20.976 114.166 19.776 114.726 18.752C115.286 17.712 116.062 16.912 117.054 16.352C118.046 15.776 119.182 15.488 120.462 15.488C122.11 15.488 123.47 15.904 124.542 16.736C125.63 17.552 126.358 18.704 126.726 20.192H123.102C122.91 19.616 122.582 19.168 122.118 18.848C121.67 18.512 121.11 18.344 120.438 18.344C119.478 18.344 118.718 18.696 118.158 19.4C117.598 20.088 117.318 21.072 117.318 22.352C117.318 23.616 117.598 24.6 118.158 25.304C118.718 25.992 119.478 26.336 120.438 26.336C121.798 26.336 122.686 25.728 123.102 24.512H126.726C126.358 25.952 125.63 27.096 124.542 27.944C123.454 28.792 122.094 29.216 120.462 29.216C119.182 29.216 118.046 28.936 117.054 28.376C116.062 27.8 115.286 27 114.726 25.976C114.166 24.936 113.886 23.728 113.886 22.352ZM141.547 22.064C141.547 22.544 141.515 22.976 141.451 23.36H131.731C131.811 24.32 132.147 25.072 132.739 25.616C133.331 26.16 134.059 26.432 134.923 26.432C136.171 26.432 137.059 25.896 137.587 24.824H141.211C140.827 26.104 140.091 27.16 139.003 27.992C137.915 28.808 136.579 29.216 134.995 29.216C133.715 29.216 132.563 28.936 131.539 28.376C130.531 27.8 129.739 26.992 129.163 25.952C128.603 24.912 128.323 23.712 128.323 22.352C128.323 20.976 128.603 19.768 129.163 18.728C129.723 17.688 130.507 16.888 131.515 16.328C132.523 15.768 133.683 15.488 134.995 15.488C136.259 15.488 137.387 15.76 138.379 16.304C139.387 16.848 140.163 17.624 140.707 18.632C141.267 19.624 141.547 20.768 141.547 22.064ZM138.067 21.104C138.051 20.24 137.739 19.552 137.131 19.04C136.523 18.512 135.779 18.248 134.899 18.248C134.067 18.248 133.363 18.504 132.787 19.016C132.227 19.512 131.883 20.208 131.755 21.104H138.067Z" fill="white"/>
<path d="M148.854 22.304C148.854 20.96 149.118 19.768 149.646 18.728C150.191 17.688 150.919 16.888 151.831 16.328C152.759 15.768 153.791 15.488 154.927 15.488C155.919 15.488 156.783 15.688 157.519 16.088C158.271 16.488 158.871 16.992 159.319 17.6V15.704H162.703V29H159.319V27.056C158.887 27.68 158.287 28.2 157.519 28.616C156.767 29.016 155.895 29.216 154.903 29.216C153.783 29.216 152.759 28.928 151.831 28.352C150.919 27.776 150.191 26.968 149.646 25.928C149.118 24.872 148.854 23.664 148.854 22.304ZM159.319 22.352C159.319 21.536 159.159 20.84 158.839 20.264C158.519 19.672 158.087 19.224 157.543 18.92C156.999 18.6 156.415 18.44 155.791 18.44C155.167 18.44 154.591 18.592 154.062 18.896C153.535 19.2 153.103 19.648 152.767 20.24C152.447 20.816 152.287 21.504 152.287 22.304C152.287 23.104 152.447 23.808 152.767 24.416C153.103 25.008 153.535 25.464 154.062 25.784C154.607 26.104 155.183 26.264 155.791 26.264C156.415 26.264 156.999 26.112 157.543 25.808C158.087 25.488 158.519 25.04 158.839 24.464C159.159 23.872 159.319 23.168 159.319 22.352ZM169.344 17.624C169.776 17.016 170.368 16.512 171.12 16.112C171.888 15.696 172.76 15.488 173.736 15.488C174.872 15.488 175.896 15.768 176.808 16.328C177.736 16.888 178.464 17.688 178.992 18.728C179.536 19.752 179.808 20.944 179.808 22.304C179.808 23.664 179.536 24.872 178.992 25.928C178.464 26.968 177.736 27.776 176.808 28.352C175.896 28.928 174.872 29.216 173.736 29.216C172.76 29.216 171.896 29.016 171.144 28.616C170.408 28.216 169.808 27.712 169.344 27.104V35.336H165.984V15.704H169.344V17.624ZM176.376 22.304C176.376 21.504 176.208 20.816 175.872 20.24C175.552 19.648 175.12 19.2 174.576 18.896C174.048 18.592 173.472 18.44 172.848 18.44C172.24 18.44 171.664 18.6 171.12 18.92C170.592 19.224 170.16 19.672 169.824 20.264C169.504 20.856 169.344 21.552 169.344 22.352C169.344 23.152 169.504 23.848 169.824 24.44C170.16 25.032 170.592 25.488 171.12 25.808C171.664 26.112 172.24 26.264 172.848 26.264C173.472 26.264 174.048 26.104 174.576 25.784C175.12 25.464 175.552 25.008 175.872 24.416C176.208 23.824 176.376 23.12 176.376 22.304ZM185.61 17.624C186.042 17.016 186.634 16.512 187.386 16.112C188.154 15.696 189.026 15.488 190.002 15.488C191.138 15.488 192.162 15.768 193.074 16.328C194.002 16.888 194.73 17.688 195.258 18.728C195.802 19.752 196.074 20.944 196.074 22.304C196.074 23.664 195.802 24.872 195.258 25.928C194.73 26.968 194.002 27.776 193.074 28.352C192.162 28.928 191.138 29.216 190.002 29.216C189.026 29.216 188.162 29.016 187.41 28.616C186.674 28.216 186.074 27.712 185.61 27.104V35.336H182.25V15.704H185.61V17.624ZM192.642 22.304C192.642 21.504 192.474 20.816 192.138 20.24C191.818 19.648 191.386 19.2 190.842 18.896C190.314 18.592 189.738 18.44 189.114 18.44C188.506 18.44 187.93 18.6 187.386 18.92C186.858 19.224 186.426 19.672 186.09 20.264C185.77 20.856 185.61 21.552 185.61 22.352C185.61 23.152 185.77 23.848 186.09 24.44C186.426 25.032 186.858 25.488 187.386 25.808C187.93 26.112 188.506 26.264 189.114 26.264C189.738 26.264 190.314 26.104 190.842 25.784C191.386 25.464 191.818 25.008 192.138 24.416C192.474 23.824 192.642 23.12 192.642 22.304Z" fill="#33CC95"/>
<defs>
<clipPath id="clip0_35212_419">
<rect width="27.4286" height="27.4286" fill="white" transform="translate(6.85715 6.85714)"/>
</clipPath>
</defs>
</svg>
